<svg id="Layer_1" data-name="Layer 1" xmlns="http://www.w3.org/2000/svg" viewBox="0 0 50 50"><defs><style>.cls-1{fill:#fff;}</style></defs><title>Artboard 4</title><path class="cls-1" d="M47.66,12.07Q42.83,9.88,38,7.67c-2-.94-4-2.22-6.36-2.22H30.39a.52.52,0,0,0-.48.41C29.54,7.15,27.49,8.14,25,8.14s-4.51-1-4.88-2.28a.53.53,0,0,0-.48-.41H18.42C15.88,5.45,13.51,7,11.26,8,8.82,9.09,6.4,10.23,4,11.33l-1.62.74a1.35,1.35,0,0,0-.68,1.78l2.5,5.54a1.34,1.34,0,0,0,1.78.67l5-2.49V43c0,2.07,7.05,3.1,14.09,3.1S39.11,45,39.11,43V17.52l5,2.54a1.34,1.34,0,0,0,1.78-.67l2.5-5.54A1.35,1.35,0,0,0,47.66,12.07ZM35.45,17.61a4.88,4.88,0,0,1-1.25,3.21,4.4,4.4,0,0,1-1.4,1.07,4,4,0,0,1-3.62,0,4.4,4.4,0,0,1-1.4-1.07,4.88,4.88,0,0,1-1.25-3.21V15.89a2.07,2.07,0,0,1,2.06-2.06h4.8a2.07,2.07,0,0,1,2.06,2.06Zm11-4.42a.78.78,0,0,1-1,.38l-1.54-.7-2-.91c-1.26-.57-2.46-1.1-4.22-1.91l-1.28-.62A10.92,10.92,0,0,0,31.62,7.9h-.14a4.13,4.13,0,0,1-2.51,2,11.65,11.65,0,0,1-3.95.7,11.59,11.59,0,0,1-3.94-.7,4.18,4.18,0,0,1-2.52-2h-.14a12.55,12.55,0,0,0-5.25,1.72c-.53.26-1.07.53-1.6.77-1.35.6-2.73,1.23-4.05,1.84-.55.26-1.11.52-1.68.77l-1.56.71a.71.71,0,0,1-.32.07.78.78,0,0,1-.7-.45.76.76,0,0,1,.38-1l3.23-1.48C8.2,10.22,9.58,9.58,10.94,9c.5-.23,1-.48,1.54-.74a13.55,13.55,0,0,1,5.94-1.88h.36a1.28,1.28,0,0,1,1.22,1c.08.28.61.73,1.62,1.11a10.18,10.18,0,0,0,3.4.61,10.18,10.18,0,0,0,3.4-.61c1-.38,1.55-.83,1.62-1.11a1.29,1.29,0,0,1,1.23-1h.35a12.23,12.23,0,0,1,5.45,1.69l1.24.6,4.2,1.9c1.05.46,2.13.95,3.59,1.61A.79.79,0,0,1,46.49,13.19Z"/><path class="cls-1" d="M33.39,15.38h-4.8a.51.51,0,0,0-.51.51v1.72A3.13,3.13,0,0,0,31,20.77a3.13,3.13,0,0,0,2.91-3.16V15.89A.51.51,0,0,0,33.39,15.38ZM33,17.7a2,2,0,1,1-4.08,0h0V16.14H33Z"/><path d="M48.3,10.66,45,9.17c-2.1-.95-4.27-1.93-6.39-2.91-.4-.18-.8-.38-1.22-.58A13,13,0,0,0,31.62,3.9H30.38A2,2,0,0,0,29,4.43a2.13,2.13,0,0,0-.62,1c0,.08-.22.36-.83.65a6.26,6.26,0,0,1-2.57.5,6.33,6.33,0,0,1-2.57-.5c-.6-.29-.8-.57-.82-.65a2.21,2.21,0,0,0-.62-1,2,2,0,0,0-1.35-.53H18.42a14.4,14.4,0,0,0-6.28,2l-1.51.72C9.26,7.2,7.88,7.83,6.55,8.45L3.33,9.92l-.83.38-.8.36A2.91,2.91,0,0,0,.25,14.49L2.75,20a2.9,2.9,0,0,0,2.64,1.71,2.82,2.82,0,0,0,1.18-.26h0l0,0,2.76-1.37V43c0,.77.35,1.88,2.06,2.74A14.5,14.5,0,0,0,15,46.79a54.57,54.57,0,0,0,10,.81,54.6,54.6,0,0,0,10-.81,14.5,14.5,0,0,0,3.59-1.1c1.7-.86,2.06-2,2.06-2.74V20.05l2.69,1.39h0l0,0a2.82,2.82,0,0,0,1.18.26A2.9,2.9,0,0,0,47.25,20l2.49-5.53A2.9,2.9,0,0,0,48.3,10.66Zm0,3.19-2.5,5.54a1.34,1.34,0,0,1-1.78.67l-5-2.54V43c0,2.07-7,3.1-14.09,3.1S10.93,45,10.93,43V17.57l-5,2.49a1.34,1.34,0,0,1-1.78-.67l-2.5-5.54a1.35,1.35,0,0,1,.68-1.78L4,11.33C6.4,10.23,8.82,9.09,11.26,8c2.25-1,4.62-2.55,7.16-2.55h1.24a.53.53,0,0,1,.48.41c.37,1.29,2.41,2.28,4.88,2.28s4.52-1,4.89-2.28a.52.52,0,0,1,.48-.41h1.23C34,5.45,35.93,6.73,38,7.67q4.85,2.22,9.68,4.4A1.35,1.35,0,0,1,48.34,13.85Z"/><path d="M29,17.7h0a2,2,0,1,0,4.08,0V16.14H29Z"/><path d="M33.39,13.83h-4.8a2.07,2.07,0,0,0-2.06,2.06v1.72a4.88,4.88,0,0,0,1.25,3.21,4.4,4.4,0,0,0,1.4,1.07,4,4,0,0,0,3.62,0,4.4,4.4,0,0,0,1.4-1.07,4.88,4.88,0,0,0,1.25-3.21V15.89A2.07,2.07,0,0,0,33.39,13.83Zm.51,3.78A3.13,3.13,0,0,1,31,20.77a3.13,3.13,0,0,1-2.91-3.16V15.89a.51.51,0,0,1,.51-.51h4.8a.51.51,0,0,1,.51.51Z"/><path d="M46.1,12.16c-1.46-.66-2.54-1.15-3.59-1.61l-4.2-1.9-1.24-.6a12.23,12.23,0,0,0-5.45-1.69h-.35a1.29,1.29,0,0,0-1.23,1c-.07.28-.61.73-1.62,1.11a10.18,10.18,0,0,1-3.4.61,10.18,10.18,0,0,1-3.4-.61c-1-.38-1.54-.83-1.62-1.11a1.28,1.28,0,0,0-1.22-1h-.36a13.55,13.55,0,0,0-5.94,1.88c-.53.26-1,.51-1.54.74-1.36.6-2.74,1.24-4.07,1.85L3.64,12.31a.76.76,0,0,0-.38,1,.78.78,0,0,0,.7.45.71.71,0,0,0,.32-.07L5.84,13c.57-.25,1.13-.51,1.68-.77,1.32-.61,2.7-1.24,4.05-1.84.53-.24,1.07-.51,1.6-.77A12.55,12.55,0,0,1,18.42,7.9h.14a4.18,4.18,0,0,0,2.52,2,11.59,11.59,0,0,0,3.94.7A11.65,11.65,0,0,0,29,9.89a4.13,4.13,0,0,0,2.51-2h.14a10.92,10.92,0,0,1,4.76,1.53l1.28.62c1.76.81,3,1.34,4.22,1.91l2,.91,1.54.7a.78.78,0,0,0,1-.38A.79.79,0,0,0,46.1,12.16Z"/></svg>