<svg height="512" viewBox="0 0 64 64" width="512" xmlns="http://www.w3.org/2000/svg"><g id="Team_shirt" data-name="Team shirt"><g fill="#57a4ff"><path d="m47 30-5 3-5-3v-10h10z"/><path d="m13 27-9-3-2 4 11 3z"/><path d="m51 27 9-3 2 4-11 3z"/><path d="m13 58h38v4h-38z"/></g><path d="m62.935 27.644-8.987-23.567a4.987 4.987 0 0 0 -4.615-3.077h-8.333a1 1 0 0 0 -1 1c0 2.71-3.663 5-8 5s-8-2.29-8-5a1 1 0 0 0 -1-1h-8.333a5 5 0 0 0 -4.627 3.105l-8.975 23.539a1 1 0 0 0 .672 1.321l10.263 2.799v30.236a1 1 0 0 0 1 1h38a1 1 0 0 0 1-1v-30.236l10.263-2.8a1 1 0 0 0 .672-1.321zm-12.2 2.391a1 1 0 0 0 -.735.965v30h-36v-30a1 1 0 0 0 -.737-.965l-9.936-2.709.844-2.215 8.513 2.838a1 1 0 0 0 .632-1.9l-8.431-2.81 7.015-18.393a2.994 2.994 0 0 1 2.767-1.846h7.433c.7 3.388 4.869 6 9.9 6s9.2-2.612 9.9-6h7.435a2.983 2.983 0 0 1 2.758 1.818l7.024 18.423-8.431 2.81a1 1 0 0 0 .632 1.9l8.513-2.838.844 2.215z" fill="#004fac"/><path d="m47 19h-10a1 1 0 0 0 -1 1v10a1 1 0 0 0 .485.857l5 3a1 1 0 0 0 1.03 0l5-3a1 1 0 0 0 .485-.857v-10a1 1 0 0 0 -1-1zm-1 10.434-4 2.4-4-2.4v-8.434h8z" fill="#004fac"/><path d="m23 57h-6a1 1 0 0 0 0 2h6a1 1 0 0 0 0-2z" fill="#004fac"/><path d="m27 57h-1a1 1 0 0 0 0 2h1a1 1 0 0 0 0-2z" fill="#004fac"/></g></svg>